<svg xmlns="http://www.w3.org/2000/svg" fill="none" viewBox="0 0 128 128"><g id="raindrop-measure__raindrop-measure"><path id="raindrop-measure__Ruler" stroke="#e5e7eb" stroke-linecap="round" stroke-linejoin="round" stroke-width="2" d="M84 34h8v60h-8m2-30h6m-4 14h4m-4-30h4"/><path id="raindrop-measure__Background" fill="url(#raindrop-measure__paint0_linear_1858_257)" stroke="#bfdbfe" stroke-linecap="round" stroke-linejoin="round" d="M64.5 34.907c5.752 8.707 10.461 15.798 13.759 22.048 3.375 6.398 5.241 11.863 5.241 17.22 0 10.682-8.51 19.325-19 19.325s-19-8.668-19-19.325c0-5.344 1.866-10.803 5.241-17.201 3.298-6.251 8.007-13.348 13.759-22.067"/><g id="raindrop-measure__Mask group"><mask id="raindrop-measure__mask0_1858_257" maskUnits="userSpaceOnUse" style="mask-type:alpha"><rect id="raindrop-measure__Water Level" width="39" height="30" x="45" y="64" fill="#000"><animate attributeName="y" begin="0s" calcMode="spline" dur="3s" keySplines=".42 0 .58 1; .42 0 .58 1" repeatCount="indefinite" values="64;56;64"/><animate attributeName="height" begin="0s" calcMode="spline" dur="3s" keySplines=".42 0 .58 1; .42 0 .58 1" repeatCount="indefinite" values="30;38;30"/></rect></mask><g mask="url(#raindrop-measure__mask0_1858_257)"><path id="raindrop-measure__Raindrop" fill="url(#raindrop-measure__paint1_linear_1858_257)" stroke="#1d4ed8" stroke-miterlimit="10" d="M64.5 34.907c5.752 8.707 10.461 15.798 13.759 22.048 3.375 6.398 5.241 11.863 5.241 17.22 0 10.682-8.51 19.325-19 19.325s-19-8.668-19-19.325c0-5.344 1.866-10.803 5.241-17.201 3.298-6.251 8.007-13.348 13.759-22.067Z"/></g></g></g><defs><linearGradient id="raindrop-measure__paint0_linear_1858_257" x1="64.5" x2="64.5" y1="34" y2="94.111" gradientUnits="userSpaceOnUse"><stop stop-color="#dbeafe" stop-opacity=".25"/><stop offset="1" stop-color="#bfdbfe" stop-opacity=".25"/></linearGradient><linearGradient id="raindrop-measure__paint1_linear_1858_257" x1="64.5" x2="64.5" y1="34" y2="94" gradientUnits="userSpaceOnUse"><stop stop-color="#2563eb"/><stop offset="1" stop-color="#1d4ed8"/></linearGradient></defs></svg>