<svg xmlns="http://www.w3.org/2000/svg" fill="none" viewBox="0 0 128 128"><g id="thermometer-fahrenheit__thermometer-fahrenheit" clip-path="url(#thermometer-fahrenheit__clip0_1844_15713)"><g id="thermometer-fahrenheit__Thermometer Mercury"><circle id="thermometer-fahrenheit__Reservoir" cx="64" cy="83" r="9" fill="#dc2626"/><rect id="thermometer-fahrenheit__Value" width="6" height="29" x="61" y="50" fill="#dc2626" rx="3"><animateTransform attributeName="transform" begin="0s" calcMode="spline" dur="3s" keySplines=".42 0 .58 1; .42 0 .58 1" repeatCount="indefinite" type="translate" values="0 0;0 -2;0 0"/></rect></g><g id="thermometer-fahrenheit__Thermometer Glass"><path id="thermometer-fahrenheit__Glass" fill="url(#thermometer-fahrenheit__paint0_linear_1844_15713)" stroke="#bfdbfe" stroke-linecap="round" stroke-linejoin="round" d="M50.5 83.191a13.05 13.05 0 0 1 1.523-6.14 13.5 13.5 0 0 1 4.261-4.776.5.5 0 0 0 .216-.41V38.778c0-1.926.786-3.776 2.191-5.142A7.62 7.62 0 0 1 64 31.5c1.994 0 3.903.77 5.309 2.137a7.17 7.17 0 0 1 2.191 5.142v3.268H65a.5.5 0 0 0 0 1h6.5v6.78H65a.5.5 0 1 0 0 1h6.5v6.778H65a.5.5 0 0 0 0 1h6.5V71.84a.5.5 0 0 0 .216.411 13.5 13.5 0 0 1 4.266 4.787A13.05 13.05 0 0 1 77.5 83.19v.002C77.5 90.543 71.48 96.5 64 96.5s-13.5-5.957-13.5-13.308z"/><path id="thermometer-fahrenheit__Â°F" fill="#202939" d="M84.768 61.926q-1.026 1.044-2.61 1.044t-2.61-1.044q-1.026-1.026-1.026-2.61 0-1.566 1.026-2.592t2.61-1.026 2.61 1.026 1.026 2.592q0 1.584-1.026 2.61m-3.78-1.404q.468.468 1.17.468.72 0 1.188-.468.45-.45.45-1.206 0-.72-.468-1.17-.45-.468-1.17-.468t-1.17.468q-.45.45-.45 1.17 0 .756.45 1.206m16.18-4.338v2.862h-6.39v2.286h5.419v2.754h-5.418V69h-3.366V56.184z"/></g></g><defs><linearGradient id="thermometer-fahrenheit__paint0_linear_1844_15713" x1="64" x2="64" y1="31" y2="97.121" gradientUnits="userSpaceOnUse"><stop stop-color="#dbeafe" stop-opacity=".25"/><stop offset="1" stop-color="#bfdbfe" stop-opacity=".25"/></linearGradient><clipPath id="thermometer-fahrenheit__clip0_1844_15713"><rect width="128" height="128" fill="#fff"/></clipPath></defs></svg>